<svg xmlns="http://www.w3.org/2000/svg" viewBox="45.24 97 385.76 484"><path fill="#fff" d="M109.872 578.99c-1.216-1.782-2.678-2.046-12.872-2.329-6.325-.175-9.475-.051-7 .275 4.468.59 4.451.6-2.437 1.309-3.815.393-7.153.499-7.417.235-.263-.264.72-.48 2.187-.48 1.467 0 2.667-.458 2.667-1.018 0-.638-3.542-.918-9.49-.75-5.22.147-9.494.632-9.5 1.077-.005.445-.55.475-1.21.068-.769-.476.219-1.399 2.75-2.571 3.522-1.631 3.625-1.772.95-1.3-2.825.499-5.369 1.099-6.5 1.533-.275.105-.95.259-1.5.34-2.683.399-8.47 2.862-8.109 3.452.226.368-1.12.703-2.99.744-1.87.041-3.401 0-3.401-.092s3.038-1.328 6.75-2.748c13.969-5.34 42.708-9.627 54.196-8.084 3.055.41 5.998.77 6.54.798 1.228.064 3.32 4.327 4.143 8.445.6 3.002.503 3.106-2.882 3.106-2.387 0-3.94-.64-4.875-2.01m251.612-2.242c1.807-5.964 4.338-11.536 4.428-9.748.042.825-.554 2.707-1.324 4.183-.77 1.475-1.702 4.057-2.07 5.738-.37 1.68-1.043 3.285-1.497 3.566-.453.28-.245-1.402.463-3.739"/><path fill="#fff" d="M367.008 579.75c.007-1.19 1.353-10.464 2.549-17.566.538-3.195.474-3.273-1.75-2.128-1.269.654-3.545 2.343-5.057 3.753-3.072 2.865-3.698 2.332-1-.85 2.74-3.234 10.046-6.139 12.344-4.909 2.02 1.081 2.635 3.95.847 3.95-.582 0-.763.48-.4 1.065.822 1.33-.388 8.148-1.342 7.556-.384-.24-.545 1.998-.356 4.972l.342 5.407h-3.092c-1.812 0-3.09-.518-3.085-1.25M106.5 575c.738-1.194-1.222-1.194-4 0-1.786.767-1.712.867.691.93 1.48.038 2.97-.38 3.309-.93m-18.77-4.604c-.333-.332-1.196-.368-1.918-.08-.797.32-.56.557.605.605 1.054.043 1.644-.193 1.312-.525m173.459-2.204c-2.866-2.932-4.994-4.053-9.188-4.84-1.375-.258-3.871-1.792-5.548-3.41-2.864-2.765-6.29-3.77-7.777-2.284-.362.362-.3 1.15.136 1.75.436.6.492 2.667.123 4.592l-.67 3.5-.132-4.357c-.112-3.692-.4-4.262-1.882-3.737-1.24.44-1.105.106.463-1.143 1.93-1.538 2.101-2.253 1.337-5.592-1.058-4.63-1.241-4.835-4.484-5.023-1.41-.081-2.565-.538-2.565-1.015 0-.476 1.011-.595 2.249-.263 1.238.331 2.786.609 3.441.616.655.008 1.568 1.927 2.028 4.264.685 3.477 1.286 4.312 3.309 4.59 1.36.187 3.763 1.65 5.34 3.25 1.578 1.6 3.695 2.91 4.704 2.91 2.149 0 6.993 2.023 8.428 3.52 2.834 2.955 4.733 5.48 4.121 5.48-.378 0-1.924-1.264-3.433-2.808M100.75 569.31c-.963-.25-2.537-.25-3.5 0-.963.252-.175.458 1.75.458s2.713-.206 1.75-.457"/><path fill="#fff" d="M374 565.941c0-1.068-.45-1.941-1-1.941s-1 1.152-1 2.559c0 1.451.433 2.292 1 1.941.55-.34 1-1.491 1-2.559m-168.627-.859c-2.27-1.03-4.486-2.457-4.927-3.169-.44-.712.795-.309 2.745.896 3.865 2.389 5.913 2.895 4.009.991-1.484-1.484-1.55-2.8-.141-2.8.582 0 .801.417.487.926-.322.52.937.786 2.874.606 2.305-.214 3.63.156 3.999 1.117.42 1.095 1.016 1.189 2.5.394 1.072-.574 2.767-1.022 3.765-.996.999.026-.418.919-3.149 1.985-3.26 1.272-5.303 1.6-5.95.953-.542-.542-1.458-.978-2.035-.97-.578.009-.375.452.45.985 2.504 1.618-.242 1.073-4.627-.918m-100.257-1.632c-.064-1.128.339-2.505.895-3.061.682-.682.337-2.947-1.057-6.95-1.137-3.267-2.33-8.95-2.651-12.632-.553-6.343-.479-6.666 1.423-6.168 2.187.572 4.879 7.574 3.666 9.536-.386.624-.26.862.277.53 1.082-.67 3.632 7.944 3.862 13.045.153 3.39-.415 3.966-2.173 2.208-1.213-1.213-2.86.392-3.634 3.542-.482 1.96-.494 1.958-.608-.05m8.457-2.604c-1.81-3.63-2.017-5.238-.557-4.336.56.346.758 1.047.441 1.56-.316.511-.098.93.484.93s1.059.862 1.059 1.917c0 1.054.563 2.143 1.25 2.42.876.354.898.529.073.584-.647.043-1.884-1.34-2.75-3.075M226 563.198c0-.629-.78-.884-1.75-.572-1.463.47-1.505.39-.258-.49 1.564-1.104 3.961.244 2.691 1.514-.375.376-.683.172-.683-.452"/><path fill="#fff" d="M205.5 557.873c-2.75-2.23-5.185-4.576-5.41-5.214-.226-.637 1.353.416 3.509 2.341 2.155 1.925 5.04 4.264 6.41 5.198 1.37.933 2.041 1.705 1.491 1.714-.55.01-3.25-1.808-6-4.039m16.61.674c-3.064-3.38-3.235-7.304-.414-9.523 2.408-1.893 3.69-1.856 8.054.236 2.605 1.248 2.935 4.874.796 8.74-1.73 3.127-5.853 3.394-8.435.547m31.979 1.53c-.774-.49-2.124-.666-3-.39-1.215.383-1.28.28-.275-.442 1.58-1.134 6.392-.39 5.614.87-.66 1.068-.59 1.07-2.338-.038m21.909-.203c-1.375-.549-5.359-1.204-8.853-1.456-3.493-.252-7.206-.914-8.25-1.473-1.043-.558-1.897-.782-1.897-.497 0 .285-1.463-.293-3.25-1.283-5.36-2.97-6.58-3.233-6.077-1.308.375 1.436-.171 1.648-3.447 1.336-3.78-.36-5.408-2.526-2.683-3.571.687-.264 1.007-1.525.74-2.921-.365-1.91.275-3.013 2.874-4.954 4.756-3.551 7.843-5.04 7.843-3.782 0 .57-.572 1.035-1.272 1.035-.7 0-2.95 1.383-5 3.073-3.73 3.074-4.89 5.927-2.411 5.927.724 0 3.874 1.308 7 2.906 3.126 1.599 5.683 2.708 5.683 2.465 0-.243.854.016 1.897.574 1.044.559 4.811 1.225 8.372 1.48 3.56.255 7.994 1.128 9.853 1.938 3.765 1.642 2.804 2.08-1.122.511"/><path fill="#fff" d="M228.5 558.064c-.55.842-.213.672.75-.378.963-1.049 1.75-2.82 1.75-3.937 0-2.001-2.554-4.67-4.5-4.702-.55-.009-.38.377.379.857 1.02.646.433 1.215-2.25 2.186-4.017 1.452-4.368 2.41-2.08 5.678 1.501 2.142 1.638 2.157 4.25.49 2.186-1.395 2.51-1.431 1.701-.194m92 .86c2.75-.554 6.197-1.108 7.66-1.23 1.463-.121 3.6-1.072 4.75-2.112s2.09-1.48 2.09-.978c0 1.274-4.09 3.805-6.5 4.023-1.1.1-4.475.435-7.5.744l-5.5.562 5-1.009m-74.77-7.528c-.333-.332-1.196-.368-1.917-.08-.798.32-.561.557.604.605 1.054.043 1.644-.193 1.312-.525m120.885-2.959c-.914-2.382-.771-4.233.207-2.692.965 1.52 6.395 2.103 6.856.737 1.162-3.445 4.78-7.677 8.03-9.392 2.086-1.1 3.2-2.021 2.477-2.046-.723-.024-2.234.448-3.357 1.049-1.295.693-2.39.744-2.995.139-1.588-1.588 7.54-5.22 13.407-5.334l5.261-.103-5.784-1.265c-3.182-.696-6.107-1.606-6.5-2.022-.394-.416.184-.501 1.284-.19 1.1.313 4.823 1.104 8.274 1.76 3.451.655 6.503 1.561 6.782 2.013.28.452 1.281.55 2.226.218 1.284-.45 1.443-.304.63.581-.794.866-1.87.904-4 .141-2.382-.853-2.632-.814-1.373.213.847.69 1.615 2.375 1.706 3.743.092 1.368-.151 2.043-.54 1.5-.387-.543-1.267-1.032-1.955-1.087-2.844-.228-3.344-.44-2.864-1.216.278-.449-1.608-.848-4.19-.888l-4.696-.071 4 .746c3.814.71 3.85.752.797.887-1.762.078-4.462.677-6 1.33-3.425 1.456-8.297 5.768-8.297 7.344 0 3.505-8.226 6.928-9.386 3.905m-6.164-13.532c-1.38-2.67-1.545-4.857-.964-12.812.384-5.276 1.286-12.293 2.004-15.593.717-3.3 1.303-6.675 1.303-7.5-.002-2.64 4.065-25.31 5.518-30.763.772-2.895 2.254-6.203 3.294-7.353 2.152-2.378 7.33-5.282 8.08-4.531.276.275-.891 1.22-2.592 2.099-3.822 1.976-3.846 2.215-.197 1.962 1.956-.135 2.83.243 2.695 1.164-.251 1.714-1.591 3.13-1.591 1.682 0-.59-.918-.833-2.04-.54-1.121.294-1.8.773-1.508 1.065.292.292.025 1.14-.593 1.885-.91 1.096-1.422 1.114-2.684.092-1.227-.993-1.399-.996-.808-.012.413.688.377 1.25-.08 1.25-1.027 0-3.035 8.617-3.728 16-.4 4.264-.322 4.758.346 2.2 1.06-4.058 2.095-5.255 2.095-2.426 0 1.16.39 2.348.865 2.642.763.472.695 2.502-.337 10.084-.15 1.1-.33 2.53-.4 3.179-.211 1.944-3.288 4.474-4.757 3.91-.863-.331-1.371.173-1.371 1.36 0 1.036.463 2.039 1.029 2.227.906.302 2.33 10.842 2.207 16.324-.145 6.39-.136 8.34.054 11.5.175 2.92-.154 3.552-1.982 3.812-1.619.23-2.628-.531-3.857-2.907"/><path fill="#fff" d="M398 535c0-.55-.45-1-1-1s-1 .45-1 1 .45 1 1 1 1-.45 1-1m-317-.737c-.825-.318-2.088-1.408-2.807-2.421-.718-1.013-1.737-1.842-2.264-1.842-2.193 0-13.723-8.62-17.429-13.03-2.2-2.617-6.153-6.441-8.784-8.497-2.63-2.057-4.543-3.98-4.25-4.273.67-.67 8.373 5.42 10.975 8.673 4.266 5.336 9.713 9.99 16.465 14.07 3.902 2.358 7.094 4.685 7.094 5.172 0 .487.648.885 1.441.885s1.72.45 2.059 1c.67 1.085-.147 1.171-2.5.263M105.141 526c-.126-3.025-.923-7.3-1.772-9.5s-1.53-4.822-1.512-5.826c.023-1.375-.287-1.562-1.255-.758-.708.587-1.552.801-1.876.476-.325-.324-.355.467-.067 1.76.305 1.37-.763.268-2.567-2.652-1.7-2.75-3.995-6.126-5.1-7.501-3.065-3.813-3.183-6.471-.402-9.084 1.864-1.75 2.712-2.013 3.61-1.115 1.478 1.478 2.174 5.549.803 4.702-.552-.341-1.003-.129-1.003.471s-.854 1.414-1.899 1.81c-1.77.669-1.7.953 1.052 4.217 2.753 3.264 2.922 3.332 2.513 1-.583-3.328 1.816-5.719 3.256-3.245 1.576 2.705 1.277-.342-.435-4.44-1.732-4.146-1.288-5.646.637-2.15.708 1.284 1.299 4.927 1.315 8.095.015 3.213.336 4.982.724 4 .626-1.582.716-1.558.894.24.649 6.555 2.623 12.276 4.943 14.324.825.728.961 1.054.303.724-.834-.418-1.308 1-1.565 4.676l-.368 5.276-.229-5.5m271.904-2.696c-4.431-3.054-4.622-3.268-2.394-2.683 2.256.593 7.006 4.083 6.334 4.654-.267.226-2.04-.66-3.94-1.97m39.113-.305c1.22-1.65 2.614-3 3.098-3s-.081 1.35-1.256 3-2.569 3-3.098 3c-.529 0 .036-1.35 1.256-3M70.5 523c-.34-.55-.168-1 .382-1s1.278.45 1.618 1c.34.55.168 1-.382 1s-1.278-.45-1.618-1"/><path fill="#fff" d="M67 520.607c0-.216.698-.661 1.552-.989.89-.341 1.291-.173.94.393-.586.95-2.492 1.406-2.492.596m300.022-.125c.012-.54.902-2.107 1.978-3.482 2.107-2.693 2.622-4.503.997-3.498-.575.355-.87-.249-.692-1.415.438-2.876 1.643-3.783 2.734-2.058 1.288 2.036 1.19 3.23-.194 2.376-.708-.439-.883-.275-.451.423.386.625-.444 2.824-1.846 4.886-1.401 2.063-2.538 3.308-2.526 2.768m-293.546-1.221c-1.114-.188-4.458-2.578-7.431-5.311-3.422-3.146-6.007-4.78-7.043-4.45-.957.303-2.614-.523-3.993-1.99-1.648-1.755-1.929-2.52-.933-2.543.93-.022.606-.715-.937-2-2.531-2.109-5.139-2.6-5.139-.967 0 .55-.761 1-1.691 1-1.475 0-1.443-.188.25-1.468 1.365-1.033 1.52-1.478.524-1.5-.779-.018-1.165-.283-.858-.59 1.302-1.302 8.137 2.875 16.677 10.193 10.924 9.36 12.44 10.089 14.694 7.073 1.045-1.399 1.442-1.59 1.083-.523-.312.927-.254 1.866.127 2.086.382.22.186.285-.434.143s-1.52.068-2 .465c-.48.398-1.783.57-2.896.382m302.527-1.043c.001-.395 1.658-1.618 3.682-2.718 3.922-2.131 5.893-5 2.649-3.854-1.5.53-1.607.403-.584-.699 2.328-2.509 1.267-3.312-1.25-.947-1.375 1.292-2.5 1.875-2.5 1.297 0-.579.752-1.67 1.672-2.425C382.43 506.608 393 489.93 393 487.841c0-1.067.615-3.155 1.367-4.64 2.434-4.808 12.567-35.758 14.113-43.108 1.76-8.366 2.334-12.665 2.647-19.831.126-2.882.46-5.009.741-4.727.83.83.142 10.835-1.33 19.339-.559 3.235-.402 4.626.603 5.344 1.008.72.873.812-.525.356-1.685-.55-1.82-.215-1.278 3.156.415 2.584.305 3.298-.351 2.27-.823-1.291-.959-1.265-.972.191-.008.93.34 1.91.776 2.18.435.269.851 2.208.925 4.309.118 3.368.028 3.524-.756 1.32-.68-1.913-.781-1.444-.428 2 .282 2.756.15 3.775-.34 2.63-.668-1.558-.998-1.22-1.966 2.01-.64 2.136-.913 5.003-.608 6.372.446 1.997.335 2.192-.562.988-.876-1.176-.985-.852-.505 1.5.461 2.267.354 2.634-.442 1.5-.78-1.113-.91-.467-.498 2.5.435 3.14.308 3.678-.594 2.5-.929-1.214-1.02-1.047-.475.875.425 1.501.3 2.145-.342 1.749-.617-.382-.82.254-.52 1.625.403 1.839.289 1.976-.624.751-.876-1.176-.985-.852-.505 1.5.486 2.386.376 2.693-.536 1.5-.927-1.213-1.017-1.045-.473.875.404 1.43.289 2.138-.29 1.78-.562-.347-.783.538-.53 2.125.352 2.204.218 2.436-.71 1.22-.923-1.212-1.014-1.043-.47.875.453 1.603.316 2.155-.423 1.698-.71-.438-.864-.072-.438 1.04.404 1.052.263 1.47-.367 1.081-.63-.39-.851.276-.574 1.726.469 2.453-2.391 7.914-3.716 7.095-.416-.257-1.604.534-2.64 1.759L387.5 507.5l2.25-1.905c4.557-3.858 2.07.159-3.64 5.879-5.374 5.383-10.114 8.546-10.107 6.744"/><path fill="#fff" d="M59.25 512.969c-2.7-1.086-2.801-1.544-.53-2.415.945-.363 1.402-.343 1.015.044s.077 1.297 1.03 2.021c2.01 1.526 1.63 1.614-1.515.35m314.367-6.611c.437-4.258 7.087-19.987 8.046-19.029.197.198-1.191 3.467-3.086 7.265-1.894 3.798-3.632 8.827-3.862 11.175-.23 2.347-.684 4.533-1.008 4.857-.324.324-.365-1.597-.09-4.268m-316.123.636c-.998-1.104-2.047-1.774-2.332-1.49-.284.284.351 1.173 1.411 1.975 2.704 2.045 3.048 1.864.921-.485m183.184 1.259c-.855-1.452 1.193-5.025 3.994-6.965 5.194-3.6 5.871-3.513 1.578.201-4.228 3.658-5.611 6.247-2.75 5.15 2.157-.828 1.849.104-.44 1.329-1.066.57-2.138.699-2.382.285"/><path fill="#fff" d="M245.5 505c-.34-.55-.168-1 .382-1s1.278.45 1.618 1c.34.55.168 1-.382 1s-1.278-.45-1.618-1m103.042-.79c-4.001-.893-11.494-7.236-11.469-9.71.006-.55 1.494.679 3.308 2.73 6.083 6.882 11.547 7.71 15.847 2.403 1.673-2.065 2.493-1.269 1.007.977-1.216 1.837-6.6 4.067-8.693 3.6m81.001-.14c-.317-.513-.118-1.214.44-1.56.56-.345 1.017.074 1.017.931 0 1.757-.6 2.015-1.457.628M71 502.71c-1.375-.635-2.816-1.617-3.202-2.182-.385-.566-3.303-3.615-6.484-6.778-3.18-3.163-5.308-5.75-4.728-5.75.581 0 4.11 3.15 7.844 7 3.733 3.85 7.387 7 8.12 7 .732 0 1.61.45 1.95 1 .784 1.268-.325 1.176-3.5-.29M388 501c.589-1.1.845-2 .57-2s-.981.9-1.57 2c-.589 1.1-.845 2-.57 2s.981-.9 1.57-2m-15.952-9.75c1.235-2.063 3.394-6 4.797-8.75 3.121-6.115 3.017-5.971 3.769-5.22.338.338-.337 1.824-1.5 3.302S377 483.63 377 484.068c0 .996-6.134 10.932-6.748 10.932-.247 0 .56-1.688 1.796-3.75M95 493.559c0-1.055-1.92-1.499-2.49-.575-.345.559.074 1.016.931 1.016.857 0 1.559-.198 1.559-.441m3.524-3.484c-.706-2.223-2.023-2.695-3.02-1.082-.337.546-1.673-.24-2.973-1.75-2.843-3.303-2.419-4.311.696-1.654 1.304 1.114 1.734 1.254 1.03.337-.67-.872-.833-1.986-.364-2.5 1.105-1.21.162-8.578-1.005-7.857-.493.305-.658 1.763-.369 3.242.508 2.59.49 2.603-.498.347-.564-1.289-.796-2.713-.516-3.166.28-.453.085-1.94-.434-3.305-.668-1.758-.558-3.006.379-4.287.84-1.15 1.026-2.553.51-3.854-.445-1.125-1.339-4.971-1.984-8.546-.646-3.575-1.595-7.288-2.11-8.25-.588-1.099-.58-1.75.019-1.75.87 0 4.115 12.03 4.115 15.253 0 .747 1.157 2.908 2.57 4.803 1.974 2.643 2.46 4.258 2.092 6.944-.263 1.925-.2 2.825.141 2 .342-.825 1.136 2.55 1.766 7.5 1.161 9.125 1.148 11.334-.045 7.575m287.85-1.354c.26-1.433-.007-2.765-.594-2.961-.587-.196.685-.373 2.827-.395 2.141-.022 3.105.145 2.143.371-.962.226-1.75.998-1.75 1.715 0 .717-.697 1.883-1.55 2.59-1.343 1.115-1.486.94-1.076-1.32m9.54-4.221c.03-.55-.38-.325-.914.5-.533.825-.945 2.175-.914 3 .058 1.584 1.724-1.606 1.828-3.5m-13.175 1.906c-.327-.327.271-2.015 1.33-3.75 2.007-3.293 2.493-5.122 1.139-4.284-.436.27-.84-.492-.898-1.691-.059-1.2.11-1.618.375-.931.265.688.894 1.25 1.398 1.25 1.378 0 1.103-2.758-.333-3.338-.795-.32-.658-.533.379-.583.895-.043 2.221-1.541 2.946-3.329.725-1.788 2.525-5.275 4-7.75 2.525-4.235 5.197-11.357 6.379-17a269.6 269.6 0 0 1 1.49-6.5c.531-2.2 1.281-5.35 1.666-7 .384-1.65 1.319-3.955 2.076-5.123 1.637-2.523 2.34-17.989 1.086-23.877-.825-3.872-3.282-6.92-4.815-5.973-.412.254-.402 2 .022 3.88.93 4.12.557 9.165-1.557 21.093-.877 4.95-1.841 10.698-2.143 12.774-.302 2.076-.986 4.045-1.521 4.376-.558.345-.742-.198-.431-1.275.653-2.262 3.308-16.233 4.194-22.07 1.107-7.3 1.24-11.429.477-14.815-.812-3.597.139-6.141 1.89-5.06.658.407 1.121-.051 1.134-1.121.012-.995.963.216 2.113 2.691 2.7 5.81 3.16 25.362.687 29.17-.832 1.282-1.828 3.68-2.212 5.33-.385 1.65-1.135 4.8-1.666 7a269.6 269.6 0 0 0-1.49 6.5c-1.078 5.15-3.767 12.61-5.698 15.814-3.352 5.56-6.462 12.5-7.253 16.186-.414 1.925-1.582 4.676-2.598 6.113-1.015 1.437-1.56 2.9-1.209 3.25.35.35.412.637.137.637-.275 0-.767-.268-1.094-.594m-299.062-5.883c-2.71-2.828-4.862-6.208-5.465-8.586-.547-2.156-.629-3.695-.18-3.418.448.277 1.13 1.944 1.517 3.704.408 1.857 2.583 5.027 5.18 7.552 2.463 2.393 4.24 4.59 3.947 4.882-.291.292-2.541-1.569-5-4.134"/><path fill="#fff" d="M97.683 482.813c-.32-.798-.556-.561-.604.604-.043 1.054.193 1.644.525 1.312.332-.332.368-1.195.08-1.916m127.316-.39c0-.29 1.35-.998 3-1.573s3-1.38 3-1.788c0-.408-2.608-3.401-5.795-6.652-3.187-3.25-6.313-7.116-6.947-8.59-1.017-2.367-.814-3.104 1.739-6.316 3.236-4.073 3.092-5.35-1.166-10.289-4.043-4.69-3.5-5.35.836-1.015 4.56 4.561 4.887 8.568 1.025 12.6l-2.64 2.756 1.99 3.271c1.178 1.94 2.453 2.985 3.128 2.568.626-.387.87-.267.54.267-.33.533 1.54 3.015 4.157 5.515 3.307 3.16 4.574 5.067 4.156 6.258-.33.942-1.034 1.734-1.562 1.759-.529.025-1.974.43-3.211.901-1.238.47-2.25.618-2.25.328m-156.538-6.158c-8.471-10.124-10.964-15.173-14.8-29.984-2.288-8.828-.95-27.037 2.166-29.473 1.462-1.144 1.516-1.108.43.284-.682.876-.955 1.877-.607 2.226.349.348.117 1.256-.514 2.017-.632.761-1.307 5.531-1.5 10.6-.276 7.222.118 10.881 1.82 16.91 2.766 9.803 7.034 18.562 11.527 23.655 6.401 7.255 7.336 8.5 6.383 8.5-.519 0-2.726-2.13-4.905-4.735m300.214 3.02c-.81-1.31 1.204-6.285 2.544-6.285.494 0 .598.485.232 1.078-.367.593-.984 2.263-1.37 3.71-.424 1.584-.984 2.18-1.406 1.497M241 477.969c0-.533.675-.969 1.5-.969s1.5.177 1.5.393c0 .216-.675.652-1.5.969-.825.316-1.5.14-1.5-.393m158.97-4.469c0-.55-.437-.325-.97.5-.533.825-.97 1.95-.97 2.5s.437.325.97-.5c.533-.825.97-1.95.97-2.5m2.944-9c.03-.55-.38-.325-.914.5-.533.825-.945 2.175-.914 3 .058 1.584 1.724-1.606 1.828-3.5m3.696-1c.823-3.677 1.395-4.475 1.375-1.917-.009 1.054-.472 2.592-1.03 3.417-.742 1.095-.835.69-.345-1.5m-174.693.75c-.777-6.987-1.712-9.08-4.214-9.437-1.502-.213-2.292-1.108-2.483-2.813l-.28-2.5 2.196 2.5c1.78 2.026 2.048 2.12 1.417.5-.43-1.1-1.016-2.9-1.304-4-.288-1.1-1.59-3.435-2.892-5.19l-2.367-3.19 2.063-1.445c1.786-1.25 2.69-1.255 6.743-.036 2.574.775 5.325 2.054 6.113 2.842 1.245 1.244 1.589 1.22 2.61-.177.662-.905 1.703-1.285 2.378-.868.919.568.926 1.073.03 2.153-1.616 1.946 1.944 1.91 6.678-.069 4.49-1.876 6.613-4.484 9.901-12.167 3.697-8.635 5.309-8.757 16.354-1.232 4.752 3.238 10.069 7.041 11.815 8.453 2.955 2.389 3.137 2.423 2.633.496-.388-1.485-.068-2.07 1.134-2.07.922 0 1.417-.419 1.1-.93-.316-.513-.048-1.257.596-1.655.644-.398.906-.296.582.228-.323.524-.175 1.606.33 2.405.616.973.924-.631.935-4.857.008-3.52-.386-6.061-.891-5.749-.498.308-.714 1.572-.48 2.809.398 2.096.363 2.113-.523.249-1.52-3.2-1.314-5.8.409-5.138.93.356 1.5-.005 1.5-.952 0-.9-.474-1.235-1.155-.815-.72.446-.882.274-.43-.457.398-.644 1.142-.912 1.654-.595.512.316.931.098.931-.484s-.509-1.059-1.131-1.059c-.8 0-.995-3.07-.666-10.456.256-5.751.09-10.225-.369-9.941-.459.283-.834 5.213-.834 10.956 0 5.743-.337 10.442-.75 10.442s-.471-5.512-.13-12.25c.34-6.738.474-15.851.298-20.251-.177-4.4.015-9.575.427-11.5.484-2.259.728.547.688 7.914-.044 8.032.319 11.795 1.222 12.698.707.707 1.202 2.546 1.1 4.086-.101 1.541.15 4.264.56 6.052.474 2.073.364 3.25-.304 3.25-.577 0-.759.755-.405 1.677.576 1.5.723 1.474 1.399-.25.628-1.604.766-1.643.825-.236.038.93-.3 1.92-.752 2.199-.452.28-.917 5.774-1.034 12.21-.117 6.437-.524 12.197-.904 12.802-.38.604-.569 1.998-.42 3.098.205 1.52.046 1.67-.663.622-.514-.758-1.395-1.093-1.96-.744-.564.349-2.977-.936-5.361-2.855-9.5-7.645-20.01-14.29-21.842-13.811-1.023.267-2.599 2.13-3.5 4.137-4.936 10.983-6.803 13.204-12.682 15.085-4.198 1.343-10.46.518-11.605-1.53-1.115-1.991-9.575-4.337-11.586-3.212-1.465.82-1.372 1.268.87 4.207 1.38 1.81 2.509 3.732 2.509 4.273 0 .54 1.15 3.812 2.554 7.268 1.405 3.457 2.308 6.53 2.009 6.83-.3.3-.044 1.15.568 1.888.82.987.817 1.342-.009 1.342-.617 0-1.16-.337-1.205-.75M387 459.5c0-.825.436-1.5.969-1.5.532 0 .71.675.393 1.5-.317.825-.753 1.5-.969 1.5-.216 0-.393-.675-.393-1.5m-8-6.319c0-.584.457-1.346 1.016-1.691.56-.346.824-.94.589-1.32-.235-.381 1.356-2.712 3.535-5.181 2.18-2.47 3.628-3.599 3.217-2.511-.41 1.088-1.896 3.048-3.301 4.357-1.406 1.308-2.438 2.946-2.293 3.639.145.692-.418 1.824-1.25 2.515-.948.787-1.513.859-1.513.192M407.86 449c0-.945-.318-.76-.86.5-.473 1.1-.86 2.675-.86 3.5 0 .945.318.76.86-.5.473-1.1.86-2.675.86-3.5m4.396-5.831c1.175-4.46 2.328-7.918 2.563-7.683.56.56-2.906 13.753-3.917 14.904-.43.489.18-2.76 1.354-7.221"/><path fill="#fff" d="M220.479 444.753c-3.024-1.653-3.462-2.909-1.991-5.698 1.201-2.278 1.083-3.043-1.094-7.055-1.797-3.313-3.085-4.537-4.881-4.642-2.239-.13-5.513-2.392-5.513-3.808 0-.326-1.176-2.37-2.613-4.542-1.99-3.006-3.947-4.448-8.195-6.037-6.218-2.327-16.245-8.218-20.144-11.835-4.054-3.76-5.853-3.99-11.948-1.526-6.494 2.626-10.557 5.842-9.514 7.53.455.735.289.9-.448.445-.644-.398-.93-1.111-.638-1.585.293-.474.13-1.11-.362-1.415-1.103-.681-2.38 5.183-1.473 6.768.36.63.284.81-.17.398-.454-.411-1.651 1.597-2.66 4.462-2.225 6.318-2.255 6.885-.322 6.144.832-.32 2.162-.042 2.956.617.794.66 2.026.895 2.737.525.712-.37.183.23-1.175 1.334l-2.47 2.006 3.47-.464c5.659-.756 9.258-1.134 12.969-1.36 3.124-.191 3.236-.288 1.036-.901-2.45-.683-2.444-.698 1.119-2.9 3.91-2.417 5.845-2.8 5.845-1.155 0 .608.532.718 1.25.257 2.994-1.922 5.906-.93 7.745 2.636 3.916 7.597 12.619 13.712 20.22 14.21 4.164.271 5.982-.793 3.756-2.201-1.125-.712-.852-.934 1.162-.946 1.8-.01 2.8.618 3.157 1.985.298 1.14.026 2.015-.634 2.036-.636.02.194 1.143 1.844 2.495 1.65 1.352 2.503 2.461 1.896 2.464-.607.003-2.237-1.045-3.621-2.328-1.805-1.673-3.849-2.383-7.224-2.511-7.687-.29-18.85-7.637-21.566-14.192-1.166-2.815-4.513-4.536-5.552-2.856-1.382 2.236-8.571 4.755-15.453 5.415-12.772 1.224-15.726.992-16.2-1.273-.293-1.405 3.168-13.712 5.977-21.25.307-.825.492-1.956.411-2.514-.201-1.385 8.23-6.373 14.338-8.482 5.288-1.826 8.764-1.35 9.796 1.341 1.294 3.37 20.79 14.625 25.372 14.645 2.46.011 4.276 2.14 11.525 13.51 5.999 9.409 7.637 13.093 7.336 16.5-.125 1.426.593 3.213 1.672 4.16 2.273 1.994 1.056 3.116-1.728 1.593"/><path fill="#fff" d="M202 435.607c0-.216.675-.652 1.5-.969.825-.316 1.5-.14 1.5.393s-.675.969-1.5.969-1.5-.177-1.5-.393M399.158 434c0-1.375.227-1.938.504-1.25.278.688.278 1.813 0 2.5-.277.688-.504.125-.504-1.25m-186.204-9.086c-.614-1.147-1.369-1.833-1.678-1.524-.308.309.008 1.248.704 2.086 1.798 2.166 2.284 1.886.974-.562m4.356-2.874c-1.546-2.845-5.187-8.815-8.092-13.265-9.386-14.382-11.659-19.959-18.247-44.775-2.117-7.975-4.995-18.1-6.395-22.5-2.912-9.149-3.105-12.186-1.18-18.529.99-3.257 1.133-6.058.514-9.975-.512-3.238-.488-5.818.059-6.365.559-.559.7-.079.358 1.225-.404 1.545-.104 2.144 1.071 2.144 1.83 0 5.593 5.553 5.598 8.26.002.968-.896 2.53-1.996 3.472-2.79 2.389-2.556 4.47 2.014 17.931 2.207 6.503 3.787 12.412 3.511 13.132-.276.72-.053 1.032.495.693 1.553-.96 2.95 3.757 1.615 5.454-.864 1.097-.845 1.268.078.714.839-.504 1.19.13 1.143 2.058-.038 1.532.456 4.586 1.099 6.786.642 2.2 1.184 4.45 1.203 5 .068 1.915-1.077 8.56-1.628 9.452-.306.494-.13 1.944.388 3.223.519 1.279 1.202 3.537 1.518 5.02.316 1.48 2.597 5.648 5.069 9.259 2.472 3.61 4.495 7.011 4.495 7.556 0 .544.37.99.823.99.452 0 1.858 2.137 3.123 4.75 1.265 2.613 3.436 6.446 4.825 8.518 1.39 2.073 2.261 4.033 1.937 4.357-.324.324-1.853-1.739-3.398-4.584m6.69 4.282c0-2.122 5.926-6.405 11.532-8.334 8.48-2.918 12.585-5.96 18.112-13.428 3.876-5.237 5.242-6.423 6.849-5.947 2.487.737 13.587 11.447 12.943 12.489-.258.417.058 1.084.702 1.482.731.452.903.29.457-.43-1.057-1.712.956-1.401 2.43.374.697.841 3.903 3.155 7.122 5.142 5.815 3.59 7.237 4.797 4.34 3.686-.832-.32-2.182-.025-3 .654-1.033.857-1.487.891-1.487.111 0-.617-.337-1.038-.75-.936-1.041.258-7.862-2.785-9.81-4.376-.882-.72-3.723-3.447-6.313-6.06-2.59-2.613-5.142-4.75-5.67-4.75-.529 0-3.172 2.456-5.873 5.457-2.702 3.002-5.28 5.231-5.728 4.954-.448-.277-1.688-.036-2.755.535-1.316.704-2.05.71-2.28.015-.215-.644-1.816-.45-4.331.529-2.195.853-2.952 1.352-1.683 1.109 4.177-.8 1.747 1.535-3.534 3.395-3.087 1.087-5.302 1.42-5.5.828-.181-.546-1.555.232-3.051 1.73-1.497 1.496-2.722 2.294-2.722 1.771m-49.531-5.373c-.323-.523-1.123-.914-1.778-.871-.807.053-.77.247.112.6.979.393.855.885-.5 1.977-1.654 1.334-1.614 1.363.475.349 1.253-.608 2.014-1.533 1.691-2.055M224 419c2.475-2.167 5.09-3.954 5.809-3.97.72-.017 1.08-.4.801-.852-.28-.452.101-1.995.845-3.429.744-1.434 1.167-2.793.94-3.02-.446-.447 4.846-6.256 6.25-6.861 1.174-.506 4.705-8.11 7.207-15.518 1.142-3.383 3.04-7.999 4.217-10.257 1.177-2.259 1.916-4.688 1.643-5.4-.273-.712.114-2.396.86-3.743.836-1.509 1.384-1.874 1.428-.95.043.912.612.523 1.45-.993.76-1.372.984-2.739.5-3.038-.485-.3.738-3.649 2.717-7.443 1.98-3.793 5.346-11.988 7.48-18.21 3.666-10.686 3.802-11.503 2.45-14.737-1.789-4.282-2.163-8.145-1.192-12.329.802-3.46 2.528-4.42 2.695-1.5.141 2.485 1.674-2.543 1.8-5.906.08-2.12-.276-2.558-1.762-2.17-1.117.292-2.105-.145-2.469-1.093-.39-1.016-.06-1.581.921-1.581.94 0 1.25-.482.809-1.25-.396-.688-.348-.913.107-.5.454.412 2.741-3.13 5.082-7.872 2.34-4.742 4.807-9.13 5.48-9.75.921-.848 1.05-.818.52.122-.388.688-.23 1.25.353 1.25.582 0 1.052.788 1.044 1.75-.013 1.503-.159 1.538-1.03.25-.749-1.105-.855-.711-.404 1.5.41 2.013.301 2.561-.331 1.666-.765-1.083-1.056-1.036-1.55.25-.334.871-.365 2.215-.069 2.987.531 1.383-3.088 9.597-4.228 9.597-.323 0-.328-.675-.011-1.5.316-.825.192-1.5-.277-1.5-.468 0-1.087.9-1.375 2.001-.333 1.274-.132 1.76.553 1.336.692-.427.837-.04.406 1.083-.369.961-.914 4.973-1.21 8.914-.297 3.941-.727 8.966-.955 11.166-.322 3.099-.197 3.55.554 2 .843-1.74.922-1.646.6.72-.22 1.624.03 2.473.623 2.106 1.62-1-.016 11.54-2.712 20.801-3.513 12.064-21.202 51.391-26.883 59.767-4.002 5.9-9.799 11.402-15.493 14.705-2.581 1.497-5.053 3.324-5.493 4.061-.44.737-1.34 1.327-2 1.31-.66-.016.825-1.803 3.3-3.97"/><path fill="#fff" d="M232 421c0-.55-.198-1-.441-1s-.72.45-1.059 1c-.34.55-.141 1 .441 1s1.059-.45 1.059-1m64.158-5c0-1.375.227-1.938.504-1.25.278.688.278 1.813 0 2.5-.277.688-.504.125-.504-1.25M247 415c0-.55-.198-1-.441-1s-.72.45-1.059 1c-.34.55-.141 1 .441 1s1.059-.45 1.059-1m145.426-4.696c.137-.932.772-1.87 1.411-2.083 1.32-.44 1.418-.05.556 2.197-.81 2.112-2.281 2.026-1.967-.114M142 407c0-.55.477-1 1.059-1s.78.45.441 1c-.34.55-.816 1-1.059 1s-.441-.45-.441-1m85-1.733c-1.925-1.49-4.088-3.51-4.807-4.489-.718-.978-1.93-1.778-2.693-1.778-.763 0-1.975-.788-2.693-1.75-.719-.962-3.058-3.255-5.199-5.094-4.042-3.473-11.264-13.156-9.813-13.156.976 0 5.205 5.521 5.205 6.794 0 .905.785 1.64 12.51 11.706 3.845 3.3 7.14 6.337 7.323 6.75.184.413.923.75 1.643.75s1.569.675 1.886 1.5c.747 1.946.74 1.944-3.362-1.233m69.115-.879c-.077-2.075.885-4.372 2.885-6.888 3.41-4.29 3.605-5.054 1.5-5.862-.825-.316-1.5-1.118-1.5-1.78 0-.664 1.13-.145 2.51 1.152 1.382 1.297 2.17 2.617 1.75 2.933-2.807 2.12-5.677 6.578-6.299 9.785-.704 3.632-.735 3.657-.846.66m-50.413-32.073c-.273-.448.583-1.624 1.901-2.612s2.397-1.395 2.397-.905c0 1.378-3.738 4.437-4.298 3.517m8.105-5.841c-.308-.308-.867.247-1.243 1.233-.542 1.425-.428 1.54.56.56.684-.679.99-1.486.683-1.793m50.948-14.972c.36-1.886-.401-3.402-3.112-6.193-1.974-2.033-3.38-3.906-3.123-4.162.257-.257 2.045 1.157 3.973 3.143 2.453 2.526 3.507 4.527 3.507 6.66 0 1.678-.388 3.05-.861 3.05-.474 0-.647-1.124-.384-2.498m-9.672-6.419c-1.054-1.054-2.134-1.699-2.4-1.433-.265.266-.777.006-1.138-.577-.404-.654.296-.981 1.828-.854 1.366.113 2.264.56 1.996.993-.268.433.365.788 1.405.788 1.041 0 1.893.675 1.893 1.5 0 2.034-1.282 1.885-3.584-.417m-8.103-4.333c-.978-2.019-.946-2.072.314-.516.772.954 1.769 1.404 2.215 1 .446-.403.488-.171.092.516-.995 1.729-1.367 1.587-2.621-1m4.435-1.556c-4.007-1.662-11.44-7.194-9.666-7.194.496 0 1.896 1.058 3.111 2.351 1.215 1.294 4.106 2.947 6.425 3.674 2.318.728 4.642 1.695 5.165 2.149 1.484 1.29-.484.908-5.035-.98M204 326.378c0-2.252-.218-2.442-1.545-1.34-1.235 1.024-1.193.668.208-1.774 1.549-2.698 2.051-2.943 4.29-2.091 4.48 1.703 21.564 2.218 26.777.807 2.624-.71 5.235-1.645 5.804-2.078.568-.433 1.693-.345 2.5.197 1.28.859 1.275.959-.034.785-.825-.11-2.175.062-3 .382-6.035 2.34-10.191 2.86-20.503 2.564-6.318-.181-11.49-.705-11.492-1.163-.003-.459-.567-.646-1.255-.416-.749.25-1.12 1.686-.925 3.583.18 1.741.067 3.166-.25 3.166-.316 0-.575-1.18-.575-2.622"/><path fill="#fff" d="M214.5 326c-.715-1.157 1.888-1.157 5.5 0 2.246.72 2.124.81-1.191.9-2.03.055-3.97-.35-4.309-.9m15.5 0c0-.55.477-1 1.059-1s.78.45.441 1c-.34.55-.816 1-1.059 1s-.441-.45-.441-1m-43.65-5.532c-.794-2.067-1.35-1.824-1.35.591 0 1.132.43 1.793.956 1.468.526-.325.703-1.252.393-2.059m7.761-9.062c-3.514-2.423-5.845-4.406-5.18-4.406 1.454 0 9.153 5.19 11 7.416 1.819 2.191 1.435 1.992-5.82-3.01m23.89 3.216c0-.757.675-1.937 1.5-2.622 2.107-1.749 5.098.574 3.39 2.633-1.474 1.775-4.89 1.768-4.89-.01m-8.5-.623c.34-.55.816-1 1.059-1s.441.45.441 1-.477 1-1.059 1-.78-.45-.441-1"/><path fill="#fff" d="M203.551 310.028c-2.762-1.53-5.21-6.502-3.67-7.454.387-.24.775.511.862 1.669.149 1.972 5.142 6.946 6.272 6.248.764-.473 15.932-2.755 19.985-3.008 2.594-.161 4.147.432 6 2.294l2.5 2.512-3.783-2.247c-4.09-2.428-2.498-2.495-21.225.888-2.918.527-4.805.282-6.94-.902m57.13-1.413c-.663-1.728 1.961-5.615 3.791-5.615.748 0 1.587-.563 1.865-1.25.38-.942.524-.95.583-.035.043.668-.933 1.748-2.171 2.4-3.033 1.597-3.85 3.06-2.57 4.601.693.836.71 1.284.05 1.284-.56 0-1.255-.623-1.548-1.385M178.32 299.3c-2.46-3.448-5.972-9.93-7.803-14.4-2.111-5.16-4.786-9.643-7.318-12.266-4.681-4.85-8.193-11.41-8.214-15.344-.008-1.535-.715-4.803-1.572-7.264-1.043-2.997-1.493-7.452-1.361-13.5.167-7.709-.405-11.36-3.918-25.026-3.836-14.923-4.114-16.925-4.123-29.74-.012-15.555.705-18.317 8.118-31.261 8.05-14.057 18.968-29.609 23.282-33.165 5.534-4.561 13.74-8.599 17.58-8.65 3.99-.054 4.972-1.024 4.994-4.934.02-3.648 3.224-3.706 6.55-.118 2.154 2.325 2.988 2.57 7.162 2.099 3.357-.379 5.257-1.213 6.567-2.882 4.073-5.19 4.777-5.849 6.251-5.849.844 0 2.002 1.228 2.572 2.73.571 1.501 1.551 3.046 2.178 3.434 1.26.778 6.282.04 8.931-1.311 1.134-.579 3.79-.057 8 1.57 3.467 1.341 5.366 2.469 4.22 2.507-3.08.103-3.66 1.21-1.446 2.762 1.573 1.101 2.345 1.128 3.932.137 1.485-.927 2.548-.957 4.286-.118 1.272.612 4.927 2.148 8.124 3.411 4.71 1.862 5.718 2.656 5.318 4.187-.272 1.039-.233 1.627.086 1.308.32-.32 2.316.986 4.436 2.901 2.12 1.915 4.302 3.482 4.85 3.482.55 0 .998.563.998 1.25 0 .688 2.217 3.158 4.925 5.49 7.24 6.235 16.242 23.302 13.263 25.144-.697.43-.75 1.193-.15 2.142.758 1.2.941 1.103.983-.526.034-1.301.753-.505 2.057 2.278 1.103 2.353 1.692 4.785 1.31 5.404-.396.64-.252.852.333.49 1.12-.691 2.806 4.893 3.786 12.535 1.272 9.928-4.1 41.78-6.769 40.131-.576-.356-.754-.174-.397.405.777 1.258-.312 7.394-1.213 6.833-.345-.215-.486 4.302-.313 10.038.248 8.213.035 10.371-1 10.158-1.017-.21-1.257 1.568-1.058 7.855.244 7.711.09 8.374-3 12.98-1.791 2.668-4.36 5.398-5.71 6.066-1.35.668-3.252 2.252-4.228 3.52-.976 1.269-1.785 1.745-1.797 1.057-.012-.688.878-2.15 1.978-3.25s1.53-2 .955-2c-.67 0-.786-1.348-.324-3.75.397-2.063.671-4.529.609-5.48-.062-.952.303-1.988.812-2.302.509-.315.68.069.379.852-.366.953.326 1.592 2.089 1.929 2.034.388 2.82.018 3.44-1.623 1.02-2.694.464-3.626-2.164-3.626-2.048 0-2.073-.257-1.415-14.25.955-20.285-1.04-33.854-8.011-54.497-1.44-4.264-2.996-11.063-3.457-15.108-.486-4.255-1.698-8.81-2.876-10.807-2.422-4.104-2.57-5.026-.54-3.34 2.036 1.69 4.503 10.373 4.503 15.85 0 2.467.24 4.245.534 3.952.576-.577.737-8.346.224-10.8-.173-.825-.666-2.063-1.095-2.75-.43-.688-.504-1.25-.165-1.25.338 0-.182-1.35-1.157-3-.975-1.65-2.125-3-2.557-3-.431 0-.784-.9-.784-2s-.525-2-1.167-2c-.641 0-.897-.27-.568-.598.852-.853 5.666 2.843 5.704 4.38.017.704.665 1.524 1.44 1.822 1.607.616 2.71 4.08 3.155 9.896.424 5.563 3.667 18.5 4.636 18.5.44 0 .8.9.8 2s.436 2 .969 2c.532 0 .727.63.431 1.399-.295.77-.048 1.7.548 2.069.597.369.814 1.109.482 1.645-.331.536-.165 1.517.368 2.18.93 1.155 1.612 3.657 2.785 10.207.805 4.5 2.175 5.25 3.496 1.913 1.714-4.326 4.057-18.408 3.406-20.46-.312-.982-.126-2.057.412-2.39.975-.602.796-9.972-.314-16.483-.321-1.88-1.825-5.705-3.343-8.5-1.517-2.794-2.74-5.98-2.717-7.08.023-1.1-1.888-5.786-4.247-10.414-3.531-6.926-5.17-9.006-9.262-11.763-4.608-3.103-12.014-9.79-12.014-10.849 0-.927-4.557-5.689-6.388-6.675-1.039-.56-4.414-1.248-7.5-1.53-3.087-.282-5.797-.68-6.023-.885-.225-.204.375-1.239 1.333-2.298 1.666-1.84 1.65-1.977-.36-3.053-2.365-1.266-4.062-.629-4.062 1.526 0 1.894-2.42 1.846-4.017-.08-.973-1.171-2.836-1.427-8.123-1.115-6.513.385-9.04-.537-4.992-1.822 1.028-.326 2.57-1.37 3.428-2.318 1.437-1.588 1.358-1.736-.999-1.876-1.407-.084-2.887-.685-3.289-1.335-.855-1.383-1.973 2.066-1.994 6.15-.013 2.427-.258 2.595-2.764 1.883-1.975-.561-3.615-.264-5.819 1.056-2.544 1.523-3.71 1.66-6.825.8-3.738-1.033-3.746-1.046-1.681-2.837 2.694-2.337 2.621-3.088-.278-2.848-1.624.135-2.222.694-1.93 1.809.474 1.813-1.124 3.394-4.467 4.419-2.014.617-2.25.348-2.25-2.569 0-3.08-.08-3.152-1.468-1.317-.808 1.067-1.483 1.393-1.5.722-.018-.683-.71-.958-1.575-.626-1.391.534-1.391.76 0 2.297.849.938 1.543 2.184 1.543 2.768 0 .898-3.529 2.413-6.286 2.698-.433.045-1.108.533-1.5 1.084-.393.55-2.064 1.648-3.714 2.439-3.53 1.692-8.69 6.942-7.97 8.109 1.032 1.668-1.558 1.965-4.91.564-2.848-1.19-3.56-1.212-3.978-.123-.308.803.451 1.567 1.925 1.936 3.034.762 3.094 2.408.183 5.055-2.651 2.411-4.372 4.984-5.862 8.768-.596 1.512-1.49 2.75-1.986 2.75s-.902.481-.902 1.07c0 .588-1.42 3.133-3.155 5.656-6.108 8.877-6.95 12.707-6.508 29.612.318 12.174.802 16.246 2.457 20.662 1.133 3.025 2.127 5.275 2.21 5 .082-.275.356-1.4.61-2.5.252-1.1.598-2.45.766-3 .17-.55.64-2.35 1.046-4 .922-3.742 4.755-13.827 5.512-14.5.309-.275.687-1.175.84-2 .154-.825.675-2.4 1.16-3.5 1.035-2.35 2.349-5.788 2.484-6.5.516-2.714 3.923-9.905 4.519-9.537.423.262.398 2.828-.056 5.703-1.015 6.416-.604 7.176.995 1.84.66-2.203 1.61-4.006 2.11-4.006.499 0 2.32-2.96 4.047-6.578 1.727-3.618 3.372-6.346 3.656-6.063.694.694-4.524 11.256-6.282 12.715-.767.637-2.34 4.329-3.494 8.204-1.183 3.972-2.413 6.537-2.82 5.879-1.08-1.747-4.065 5.178-3.444 7.988.422 1.908.309 2.07-.597.855-.876-1.176-.985-.852-.505 1.5.41 2.013.301 2.561-.331 1.666-1.395-1.976-2.326 1.052-1.537 5 .402 2.011.264 2.92-.382 2.52-.626-.387-.821.373-.512 1.993.295 1.542.105 2.373-.463 2.022-.573-.353-.78.66-.51 2.494.343 2.34.14 2.896-.836 2.293-.806-.498-1.043-.4-.634.263.647 1.047-.743 17.312-2.262 26.465-.43 2.594-.433 4.5-.006 4.236 1.326-.82 3.643 11.764 2.834 15.394-1.14 5.118-.334 7.348 4.587 12.708 2.491 2.713 6.313 8.586 8.495 13.05 2.18 4.465 4.65 8.685 5.486 9.38.836.693 1.52 1.845 1.52 2.56 0 .713 1.8 3.116 4 5.338s4 4.411 4 4.865c0 .453-1.621.824-3.602.824-3.278 0-4.006-.565-8.078-6.27"/><path fill="#fff" d="m194 300.822 2.5-2.111-2.826.52c-1.846.34-2.486.18-1.846-.46.64-.64 3.008-.419 6.826.637 4.92 1.36 5.184 1.535 1.668 1.104-2.933-.36-4.626-.065-5.679.988-.825.825-1.87 1.485-2.322 1.467-.451-.019.304-.984 1.679-2.145m11.733-1.946c.679-.684 1.486-.99 1.793-.683.308.308-.247.867-1.233 1.243-1.425.542-1.54.428-.56-.56m26.887.319c-.273-.442-4.237-.704-8.808-.58-6.337.17-7.48.018-4.812-.637 2.91-.714 2.573-.787-2-.432-3.678.286-6.328-.053-8-1.024-1.375-.798-2.084-1.467-1.576-1.487.509-.02-.166-1.233-1.5-2.696-1.333-1.464-1.749-2.279-.924-1.811.825.467 2.093 1.672 2.818 2.678 1.213 1.681 3.798 1.6 2.756-.087-.253-.408 1.335-.776 3.528-.816 2.193-.04 4.755-.76 5.693-1.6 1.013-.908 3.125-1.415 5.205-1.249 2.755.22 3.571.757 3.834 2.524.244 1.64-.025 2.036-1 1.473-.734-.425-1.016-.419-.627.013.39.431-.285 1.611-1.5 2.622-2.205 1.837-2.203 1.838 2.065 1.507 2.35-.182 4.513.06 4.809.538.917 1.484 8.18.966 9.848-.702 1.321-1.322 1.571-1.34 1.571-.117 0 2.272-10.105 3.945-11.38 1.883"/><path fill="#fff" d="M199 293.32c0-.543.338-1.324.75-1.737.412-.412.75-1.257.75-1.877 0-1.794 6.543-5.713 9.398-5.63 2.173.065 1.943.295-1.398 1.396-2.2.725-3.213 1.365-2.25 1.423.963.058 1.75.812 1.75 1.676 0 1.375-.215 1.357-1.71-.139-1.615-1.614-1.77-1.614-2.75.013-1.772 2.94-4.54 5.911-4.54 4.875m32.31-7.394c.44-1.688-.072-1.938-4.154-2.025-2.56-.054-7.131-.45-10.156-.88-3.524-.5-1.01-.601 7-.28 8.664.348 12.95.925 13.964 1.88 1.274 1.2 1.198 1.379-.583 1.379-1.126 0-2.36.313-2.743.696-.383.382-1.402.799-2.264.925-1.098.161-1.417-.348-1.065-1.695"/><path fill="#fff" d="M185 285.528c0-1.72 10.897-11.155 17.128-14.829 9.582-5.65 13.013-6.806 16.9-5.691 1.696.486 5.23.63 7.854.32 4.384-.52 5.656-.1 15.694 5.181 12.705 6.684 14.65 7.932 13.751 8.83-.363.364-.151.661.471.661s1.624.92 2.226 2.046c1.013 1.892.94 1.948-.976.752-1.138-.711-2.328-2.105-2.643-3.098-.382-1.203-.962-1.5-1.74-.89-3.121 2.449-14.521 2.384-13.002-.074.355-.575.212-.777-.319-.449-.53.328-6.857.285-14.06-.095-7.201-.38-12.911-.397-12.688-.036.573.927-9.309 2.31-14.096 1.972-2.2-.155-4.472-.884-5.049-1.62-.833-1.064-1.449-.734-3 1.606-1.795 2.71-6.451 6.618-6.451 5.414m-16.18-10.688c-.176-1.187-1.097-2.27-2.047-2.408-1.637-.235-1.637-.123 0 2.128 2.148 2.957 2.449 2.998 2.047.28"/><path fill="#fff" d="M245 273c-.825-.533-1.95-.97-2.5-.97s-.325.437.5.97c.825.533 1.95.97 2.5.97s.325-.437-.5-.97m-23.245-1.421c1.072-1.073-2.8-3.579-5.529-3.579-3.011 0-6.808 3.071-5.478 4.432.756.774 10.104.05 11.007-.853m13.245.401c0-.574-1.041-.757-2.39-.418-1.316.33-2.667.156-3.002-.388-.355-.573.193-.777 1.305-.487 1.232.323 2.288-.194 2.958-1.446.933-1.744.76-1.897-1.664-1.463-1.49.266-3.45 1.129-4.358 1.918-1.11.965-1.866 1.086-2.309.37-.362-.587-1.114-1.066-1.67-1.066-1.554 0 1.518 2.72 3.7 3.276 3.512.895 7.43.74 7.43-.295"/><path fill="#fff" d="M212 271.613c0-.212 1.326-.58 2.947-.819 1.621-.237 2.72-.064 2.441.387-.495.802-5.388 1.194-5.388.432m-51-5.672c0-1.132-.43-1.793-.956-1.468-.526.325-.703 1.252-.393 2.059.793 2.067 1.349 1.824 1.349-.591m65.812 1.196c.801-.508-.426-.794-3.154-.734-2.456.053-3.946.428-3.312.832 1.541.981 4.843.931 6.466-.098m-33.132-4.252c-.304-1.164-.181-2.851.273-3.75.454-.9 1.638-3.295 2.63-5.324.994-2.029 2.177-3.46 2.63-3.18.453.28-.141 1.864-1.32 3.52-1.179 1.654-2.143 4.146-2.143 5.536 0 1.795-.249 2.134-.86 1.17-1.218-1.923-1.1-.117.145 2.209.584 1.09.635 1.934.117 1.934-.505 0-1.168-.952-1.472-2.115m24.32-4.41c-2.726-1.163-2.912-1.381-.843-.988 1.462.277 3.448.808 4.414 1.179 1.1.422 1.516.284 1.114-.367-.974-1.576-6.794-2.453-8.252-1.243-1.51 1.253-7.95.27-9.242-1.41-2.407-3.131-2.103-4.817 1.57-8.725l3.739-3.975 4.127 2.277c5.58 3.079 9.545 6.095 6.982 5.31-1.595-.488-1.695-.341-.637.933.69.832 1.766 1.226 2.391.876.667-.373.62-.079-.113.711-1.893 2.04-1.562 2.705 2.246 4.512 3.166 1.503 9.103 1.419 11.665-.165 1.196-.739-2.203-6.321-3.537-5.81-.703.27-2.594-.05-4.202-.71-1.607-.662-3.26-1.13-3.672-1.041-.412.088-.75-.589-.75-1.506 0-.916.282-1.384.627-1.04.345.345 1.964-.064 3.598-.91 5.173-2.675 6.588-2.48 10.748 1.476 2.991 2.846 3.803 4.28 3.368 5.946-.316 1.207-.972 2.195-1.458 2.195-1.959 0-2.453.206-4.127 1.721-2.475 2.24-15.143 2.723-19.756.754m-28.921-2.606c-.043-.898-1.654-2.833-3.579-4.301-1.925-1.468-3.5-3.203-3.5-3.854 0-.652 1.855.67 4.121 2.937 2.326 2.325 3.885 4.715 3.58 5.485-.4 1.004-.564.934-.622-.267M297.158 248c0-1.375.227-1.938.504-1.25.278.688.278 1.813 0 2.5-.277.688-.504.125-.504-1.25m-2.551-4.582c-.334-.87-.607-1.77-.607-2 0-.23-1.125-.418-2.5-.418-1.532 0-2.5.569-2.5 1.469 0 .847.592 1.241 1.399.931.77-.295 1.696-.056 2.059.532 1.036 1.676 2.825 1.248 2.149-.514m-107.543-.458c.846-.523.792-.865-.2-1.26-.861-.342-.925-.571-.173-.621.655-.043 1.47.371 1.809.921 1.225 1.982 6.265 1.022 9.186-1.75 4.601-4.366 8.582-10.11 8.02-11.573-.283-.74.123-1.344.904-1.344.92 0 1.215.644.837 1.834-.392 1.237-.08 1.833.96 1.833 1.242 0 1.354.5.571 2.557-.643 1.691-.634 2.349.025 1.941 1.398-.864 1.246.853-.203 2.302-1.532 1.532-3.144 1.566-2.205.045.433-.699.276-.883-.397-.467-.61.377-.98 1.234-.818 1.904.16.67.094.853-.148.407s-1.293-.039-2.336.905c-1.043.944-1.896 1.223-1.896.62 0-.603.45-1.374 1-1.714.55-.34 1-1.116 1-1.726 0-.609-1.655.548-3.679 2.571-3.311 3.312-4.165 3.662-8.55 3.507-2.678-.095-4.347-.496-3.707-.891m60.368-1.424c-1.058-1.616-2.3-2.418-3.207-2.07-.813.312-2.183-.003-3.044-.7-1.308-1.059-1.427-1.02-.723.233.463.825-.8-.05-2.808-1.946-4.18-3.947-4.51-4.585-1.555-3.003 1.854.992 2.021.89 1.459-.881-.962-3.03 1.283-3.66 3.61-1.012 5.848 6.653 9.06 10.951 8.557 11.454-.309.309-1.339-.625-2.289-2.075m-33.932.589c.55-.546 2.8-1.217 5-1.492 2.2-.275 5.414-.727 7.142-1.006 1.964-.316 3.84.055 5 .988 1.782 1.433 1.776 1.456-.142.544-1.1-.522-3.125-.773-4.5-.558-1.375.216-4.3.629-6.5.917-2.2.289-4.675.767-5.5 1.062-.996.357-1.164.204-.5-.455"/><path fill="#fff" d="M206.094 233.824c.792-1.48.795-1.874.011-1.389-.602.372-1.592 1.606-2.2 2.741-.791 1.48-.794 1.874-.01 1.389.602-.372 1.592-1.606 2.2-2.741m34.607-.4c-1.486-1.378-2.702-2.197-2.702-1.82 0 .945 4.394 5.084 4.952 4.665.248-.187-.764-1.467-2.25-2.845m-30.702.705c0-.43 1.125-1.837 2.5-3.129s2.5-2.066 2.5-1.72c0 .346-1.125 1.754-2.5 3.13-1.375 1.374-2.5 2.148-2.5 1.719m7.093-6.966c.631-1.81.888-4.95.57-6.978-.46-2.937-.359-3.306.496-1.817 1.242 2.163.517 9.356-1.107 10.98-.783.783-.77.143.041-2.185m60.32-1.388c.144-.701-.452-1.862-1.325-2.58-1.354-1.113-1.264-1.149.606-.245 1.207.584 2.514 1.578 2.905 2.21.418.677.271.878-.36.488-.587-.363-1.298-.196-1.579.37-.28.568-.392.458-.247-.243m-93.663-2.789c-3.045-1.888-1.889-2.971 1.269-1.19 2.545 1.436 3.157 1.485 3.9.307.613-.973 1.972-1.22 4.474-.814 2.532.41 4.051.124 5.147-.972.855-.855 1.762-1.349 2.014-1.097.252.253-.411 1.246-1.474 2.208-2.322 2.1-12.745 3.16-15.33 1.558m68.5.247c-1.238-.205-2.25-.78-2.25-1.278 0-.53 1.027-.515 2.48.038 1.365.518 4.759.806 7.542.64 2.784-.167 4.484.054 3.778.49-1.265.782-7.147.838-11.55.11M264 218c-3.025-.37-4.375-.754-3-.852 1.964-.14 2.183-.379 1.023-1.113-.997-.63-1.999-.462-3.079.516-2.724 2.465-9.944 1.625-9.944-1.158 0-1.567-1.583-1.876-2.447-.478-.311.503 0 1.142.69 1.42.692.28.074.543-1.372.586-2.27.068-8.556-2.265-16.621-6.17-1.238-.599-2.25-1.553-2.25-2.12 0-.614.485-.546 1.2.169 1.7 1.7 2.49 1.496 3.09-.8.339-1.297 1.364-2 2.916-2 3.388 0 4.961 1.819 3.666 4.239-1.488 2.78-.463 3.194 2.732 1.1 1.528-1 5.055-2.098 7.837-2.438l5.059-.62-4.79-.14c-3.956-.117-4.571-.374-3.537-1.481 1.36-1.457 2.362-1.247 19.483 4.09 6.057 1.887 8.42 3.121 9.183 4.796 1.674 3.675 1.163 3.802-9.839 2.454m-90.315-1.84c-1.754-.707-1.754-.786 0-2.33 3.653-3.214 10.097-5.69 19.138-7.351 8.047-1.48 9.023-1.87 7.477-3.001-.978-.716-2.073-1.118-2.434-.895-.361.223-.914-.267-1.23-1.089-.73-1.901.069-1.834 4.163.349 3.136 1.672 3.21 1.838 1.5 3.374-.99.889-3.149 1.81-4.799 2.05-2.358.34-2.074.465 1.327.583 3.357.116 4.999.822 7.327 3.15 1.65 1.65 3.753 2.993 4.673 2.985 1.134-.01 1.291-.258.488-.769-.651-.414-1.362-2.077-1.578-3.694-.309-2.304.25-3.481 2.582-5.444 3.481-2.93 5.348-3.425 5.348-1.422 0 .787-.504 1.237-1.12 1-.733-.28-.983.735-.725 2.945l.394 3.374 2.24-3.237c1.232-1.781 2.871-3.078 3.642-2.883a37.8 37.8 0 0 0 2.623.555c.672.11 1.572.564 2 1.011.428.447-.678.5-2.46.119-2.958-.634-3.421-.383-5.363 2.909-1.17 1.981-2.999 4.07-4.066 4.64-2.988 1.6-11.099 3.902-13.332 3.784-1.675-.088-1.717-.18-.254-.562 1.427-.373 1.546-.83.652-2.502-1.082-2.02-1.11-2.017-2.274.322-1.128 2.267-1.674 2.377-12.652 2.564-6.31.108-12.289-.133-13.287-.536"/><path fill="#fff" d="M189 215c0-.55-.648-1-1.441-1s-1.72.45-2.059 1c-.34.55.309 1 1.441 1 1.132 0 2.059-.45 2.059-1m85.556-6.556c-.377-2.006-.485-3.848-.24-4.093.244-.244.752 1.198 1.128 3.205.377 2.006.485 3.848.24 4.093-.244.244-.752-1.198-1.128-3.205m-103.866.056c.35-1.65 1.208-4.374 1.905-6.053.804-1.937.932-3.581.351-4.5-.503-.796-.905-2.347-.892-3.447.018-1.453.402-1.13 1.407 1.18 1.731 3.98 1.738 3.939-2.325 13.32-1.031 2.381-1.053 2.358-.446-.5m97.864-2.588c.256-.414-2.082-2.212-5.197-3.994-5.913-3.383-5.528-3.372-12.771-.371-1.351.56-1.701.449-1.191-.377.973-1.574.092-1.473-3.538.404-1.673.865-3.264 1.353-3.533 1.083-.747-.747 2.856-4.001 5.987-5.407 3.673-1.65 4.01-1.589 3.434.617-.44 1.685-.166 1.768 2.824.85 2.846-.873 4.103-.615 8.943 1.833 5.613 2.84 8.815 6.117 5.978 6.117-.771 0-1.192-.34-.936-.755"/><path fill="#fff" d="M248 203.5c-.718-.865-.815-1.5-.23-1.5.56 0 1.275.675 1.592 1.5.316.825.42 1.5.23 1.5-.191 0-.907-.675-1.592-1.5m-70.39-.322c-.29-.47 1.216-1.836 3.349-3.035 4.544-2.554 12.408-3.222 14.274-1.213 1.05 1.131.925 1.226-.733.553-3.24-1.315-9.8-.543-11.98 1.41-2.911 2.608-4.309 3.258-4.91 2.285m107.851-5.586c-.378-2.526-1.135-4.592-1.682-4.592-.546 0-.746.643-.445 1.429.302.786.854 3.057 1.227 5.047.971 5.174 1.723 3.6.9-1.884"/><path fill="#fff" d="M196.528 198.406c-5.947-3.156-7.113-3.46-9.356-2.439-2.247 1.024-2.777.883-4.31-1.15-.961-1.274-2.111-2.333-2.555-2.352-.444-.02-1.783-.579-2.976-1.242-1.676-.932-2.26-.936-2.567-.014-.306.918-.567.92-1.13.007-.453-.732.477-1.921 2.43-3.11 2.367-1.438 5.993-2.1 14.388-2.624 9.788-.612 11.66-.47 14.635 1.114 1.877.998 3.75 1.723 4.163 1.61.412-.113.75.296.75.91 0 .615-.8.908-1.78.652-.978-.256-2.32.114-2.983.823-.754.808-2.469 1.083-4.593.739-5.432-.882-5.651 1.4-.553 5.748 2.424 2.066 4.142 4.022 3.82 4.345-.324.324-3.646-1.034-7.383-3.017M230 200.82c0-.6 1.125-2.133 2.5-3.408 1.375-1.274 2.5-1.908 2.5-1.41 0 .499-1.125 2.032-2.5 3.407s-2.5 2.01-2.5 1.41m-52.05-1.513c1.406-2.909 2.973-3.783 4.337-2.419.817.817.794 1.113-.087 1.113-.66 0-1.406-.113-1.657-.25-.251-.137-1.176.65-2.055 1.75-1.568 1.962-1.578 1.959-.538-.194m-12.871-2.889c.048-1.165.285-1.402.604-.605.289.722.253 1.585-.079 1.917-.332.332-.568-.258-.525-1.312M216.5 197c-.34-.55-.168-1 .382-1s1.278.45 1.618 1c.34.55.168 1-.382 1s-1.278-.45-1.618-1m55 0c2.135-.918.845-1.378-3-1.07-1.514.12-1.67-.064-.643-.76.947-.642 1.023-1.126.25-1.604-.609-.376-1.107-.15-1.107.504 0 .856-1.609 1.005-5.75.533-6.34-.722-17.388-3.87-17.304-4.93.18-2.258-.19-2.673-2.387-2.673-1.343 0-2.72.45-3.059 1-.34.55.139 1 1.063 1 1.388 0 1.462.265.427 1.512-.913 1.1-1.606 1.222-2.542.445-.949-.788-1.58-.594-2.404.738-1.062 1.715-1.103 1.71-.83-.089.578-3.824 4.716-5.57 13.786-5.816 12.865-.348 20.277.968 25 4.441 2.204 1.621 3.754 3.357 3.445 3.858-.31.501-.031.911.618.911.88 0 .865.382-.063 1.5-.685.825-2.652 1.468-4.372 1.43-2.654-.06-2.825-.2-1.128-.93m-58.288-2.032c-1.79-2.868-1.473-3.786.39-1.126.881 1.258 1.427 2.463 1.212 2.677-.214.215-.935-.483-1.602-1.55m8.538-2.631c.688-.278 1.813-.278 2.5 0 .688.277.125.504-1.25.504s-1.938-.227-1.25-.504m5.75-.338c.34-.55.816-1 1.059-1s.441.45.441 1-.477 1-1.059 1-.78-.45-.441-1m53.857-5.857c-.852-2.907-1.73-5.104-1.95-4.884-.22.22.304 2.772 1.164 5.67.861 2.897 1.738 5.095 1.95 4.883.212-.212-.312-2.763-1.164-5.67M168.07 188.5c0-.55.644-2.125 1.43-3.5.786-1.375 1.43-2.05 1.43-1.5 0 .55-.644 2.125-1.43 3.5-.786 1.375-1.43 2.05-1.43 1.5m-22.38-9.25c-.252-.963-.458-.175-.458 1.75s.206 2.713.457 1.75c.252-.963.252-2.537 0-3.5m81.811-1.84c-5.495-4.472-6.464-5.704-7.083-9-.337-1.799-1.202-3.497-1.921-3.773-.72-.276-1.635-1.993-2.035-3.815-.885-4.031-3.212-9.294-5.89-13.322-1.718-2.587-1.746-2.802-.204-1.563 2.21 1.775 6.633 10.337 6.633 12.839 0 1.013.708 2.715 1.574 3.783.866 1.067 1.309 1.41.984.76-.715-1.429 1.06-2.747 1.89-1.404.321.52.187 1.193-.299 1.493-.5.308-.4 2.36.23 4.718.85 3.183 2.062 4.778 5.117 6.731a3454.37 3454.37 0 0 1 4.358 2.789c.195.126.195.674 0 1.218-.195.544-1.704-.11-3.354-1.453m32.077.649c-3.032-1.998-5.137-4.833-4.25-5.72.281-.282 1.034.466 1.673 1.66.639 1.193 3.038 3.022 5.33 4.063 2.616 1.187 3.425 1.899 2.17 1.908-1.1.009-3.315-.851-4.923-1.911m-74.077-1.728c1.1-.24 2.9-.827 4-1.307 2.886-1.258 11.262-2.12 9.448-.972-.796.504-3.109.923-5.139.932-2.03.008-3.97.465-4.309 1.015-.34.55-1.829.948-3.309.884-2-.086-2.178-.228-.691-.552m45.984-.358c-.235-.38 1.139-.567 3.053-.415 1.924.153 3.226-.134 2.912-.641-.849-1.374.15-1.106 1.374.369.84 1.01.214 1.296-2.922 1.332-2.194.026-4.182-.265-4.417-.645M201 174.926c4.19-1.894 8-2.832 8-1.97 0 .45-1.238 1.051-2.75 1.337-1.512.286-3.875.8-5.25 1.142l-2.5.621 2.5-1.13m44-.813c0-1.1 2.898-3.548 3.494-2.952.245.245-.44 1.205-1.524 2.133-1.083.927-1.97 1.296-1.97.819m-8.996-6.323c-2.778-3.755-2.456-4.93.395-1.445 1.729 2.113 3.256 2.872 5.934 2.947 4.527.129 3.71 1.208-.915 1.208-2.549 0-3.917-.685-5.414-2.71m30.48.192c-1.011-1.117-2.32-1.86-2.911-1.65-.59.21-2.07.013-3.288-.437-1.286-.476-2.463-.416-2.809.143-.327.53-1.103.962-1.726.962s-.259-.644.809-1.432c1.816-1.34 1.722-1.426-1.458-1.344-3.527.092-6.139-2.134-6.061-5.165.024-.917.655-.426 1.532 1.191 1.44 2.656 2.438 3.189 5.252 2.808.728-.099 1.929.322 2.667.935.739.613 2.393 1.202 3.676 1.31 2.551.215 7.533 3.33 6.683 4.18-.29.291-1.356-.384-2.366-1.501M242.5 167c.34-.55.816-1 1.059-1s.441.45.441 1-.477 1-1.059 1-.78-.45-.441-1m-31.654-3.246c1.308-1.308 4.406-1.971 3.674-.787-.269.435-1.46 1.046-2.648 1.356-1.61.421-1.871.276-1.026-.569m-36.668-.644c-.765-.473-.207-1.727 1.697-3.812 1.56-1.709 3.113-3.825 3.45-4.702.337-.878 1.189-1.56 1.894-1.517 1.003.062 1.01.188.031.583-.688.278-1.25 1.267-1.25 2.199 0 .932-.66 2.635-1.465 3.785-.805 1.15-1.236 2.32-.957 2.6.85.848-2.179 1.619-3.4.864m13.502-2.31c1.318-6.7 1.981-8.203 4.374-9.9 1.345-.954 3.571-1.998 4.946-2.32 1.375-.32.617.286-1.684 1.35-3.377 1.559-4.388 2.669-5.244 5.75-.584 2.101-1.063 4.58-1.066 5.511-.003.93-.45 1.965-.99 2.3-.618.381-.743-.624-.337-2.691m8.321 2.154c-1.112-.752-.785-.849 1.263-.373 1.654.385 3.369.14 4.273-.61 1.257-1.044 1.404-.98.88.388-.703 1.832-4.12 2.15-6.416.595m46.92-3.704c.479-3.452.548-3.522.878-.878.197 1.58-.036 3.266-.519 3.749-.503.503-.656-.722-.358-2.872m-10.283-.749c-.316-.825-.14-1.5.393-1.5s.969.675.969 1.5-.177 1.5-.393 1.5c-.216 0-.652-.675-.969-1.5m36.552-1.06c-.72-.816-1.761-1.205-2.313-.864-.552.341-1.763-.068-2.692-.908-.929-.841-3.713-1.706-6.187-1.924l-4.498-.395 4.628-.174c3.096-.117 5.045.329 5.89 1.348.696.837 2.025 1.28 2.955.985.972-.308 2.467.321 3.514 1.478 1.003 1.108 1.416 1.997.918 1.976-.498-.021-1.494-.706-2.215-1.522m-49.337-1.693c.504-.504 1.98-.749 3.282-.544 2.001.315 1.86.455-.916.916-1.988.33-2.92.183-2.366-.372m-13.289-1.04c.376-.986.935-1.541 1.243-1.233.308.307 0 1.114-.683 1.793-.988.98-1.102.865-.56-.56"/><path fill="#fff" d="M216.6 154.4c-.356-.927-.422-1.911-.147-2.186.275-.275.791.259 1.147 1.186.356.927.422 1.911.147 2.186-.275.275-.791-.259-1.147-1.186m24.4-.626c0-.858.739-1.843 1.641-2.19 1.43-.548 1.466-.4.283 1.143a89.927 89.927 0 0 0-1.641 2.19c-.156.229-.283-.286-.283-1.143m5.55-1.678c-1.31-.512-.34-.763 2.95-.763s4.26.251 2.95.763c-1.072.42-2.4.763-2.95.763-.55 0-1.878-.343-2.95-.763m-47.36-1.01c.23-.778 1.52-2.1 2.865-2.939 1.895-1.181 2.108-1.2.945-.085a72.968 72.968 0 0 0-2.865 2.938c-1.099 1.208-1.283 1.224-.945.086m35.373.144c-.2-.2-3.426-1.005-7.168-1.788-3.743-.783-7.5-2.19-8.35-3.128-1.404-1.55-1.396-1.593.092-.48 1.48 1.106 11.54 3.7 17.863 4.606 1.375.197 3.175-.137 4-.742 1.262-.927 1.294-.871.2.35-1.163 1.3-5.709 2.11-6.637 1.182m-28.484-3.813c.048-1.165.285-1.402.604-.605.289.722.253 1.585-.079 1.917-.332.332-.568-.258-.525-1.312M281 128.5c-.685-.825-1.626-1.5-2.091-1.5-.465 0-.587.675-.27 1.5.316.825 1.257 1.5 2.09 1.5 1.234 0 1.284-.279.271-1.5m-6-5.845c0-.19-.876-1.137-1.946-2.106-1.87-1.692-1.94-1.679-1.787.345.098 1.297.846 2.106 1.946 2.106.983 0 1.787-.155 1.787-.345m-15-11.048c0-.216-.675-.652-1.5-.969-.825-.316-1.5-.14-1.5.393s.675.969 1.5.969 1.5-.177 1.5-.393m-41.756-4.101c.36-1.888.178-2.272-.723-1.523-.663.55-1.471.733-1.796.408-.326-.325-1.101-.277-1.724.108-.793.49-.623 1.261.568 2.577 2.033 2.246 3.026 1.822 3.675-1.57m18.486-3.11c-.333-.332-1.196-.368-1.917-.08-.798.32-.561.557.604.605 1.054.043 1.644-.193 1.312-.525m-14.922-3.922c-.308-.308-.867.247-1.243 1.233-.542 1.425-.428 1.54.56.56.684-.679.99-1.486.683-1.793"/></svg>